<svg xmlns="http://www.w3.org/2000/svg" viewBox="0 0 48 37.27"><defs><style>.cls-1{fill:#173591;}.cls-2{fill:#89c221;fill-rule:evenodd;}</style></defs><g id="图层_2" data-name="图层 2"><g id="图层_1-2" data-name="图层 1"><path class="cls-1" d="M21.7,23.58H30a56.48,56.48,0,0,1-10.17,5.57,17.68,17.68,0,0,1,1.89-5.57m-4.95,6.21-1.6,2.48a27.11,27.11,0,0,1-5.16.51,19.33,19.33,0,0,1-2.1-.1l18.05-28A9.82,9.82,0,0,1,29.77,1.3,11.27,11.27,0,0,1,34.92,0a8.62,8.62,0,0,1,4.6,1.26,4.84,4.84,0,0,1,2.41,3.23l1,5.61c-2.18.8-4.49,1.41-6.79,2-2.07.54-4.13,1.08-6.09,1.74l-.68-3.61L25.94,15.6C21.35,18,17.8,22,16.75,29.79Zm14.35-.3H29.05a28.8,28.8,0,0,0,8.45-7.64,1.23,1.23,0,0,0,0-1.45,1.55,1.55,0,0,0-2-.37c-.81.49-1.87,1.19-3.07,2l-.65.43-1.11-5.87c2-.75,4.19-1.32,6.37-1.89s4.38-1.14,6.5-1.89l.62,3.3a34.06,34.06,0,0,1-6.3,8.08A46,46,0,0,1,31.1,29.49Zm16.33,4.19H33.86l-.46-2.43A47.5,47.5,0,0,0,39.93,26a39.92,39.92,0,0,0,5-5.76Z"/><path class="cls-2" d="M18.08,31c5.14-.76,14.34-7.51,18.18-9.85-3.44,5.27-14.77,13-26.27,13-3.32,0-5.6-.56-6.75-1.72C.36,29.49,5.45,21.5,9.5,21c-2.6,1.18-5.22,4.07-5.4,7.07.41-.2,1.39-.37,1.91-.56C11.57,25,15.83,19,15.87,15.45,6.41,15.55-1.85,23.87.36,31.19,1.82,36,8.7,39.17,20.23,36,32.42,32.6,46.27,21.31,48,9.21,37.09,15.92,20,11.91,18.08,31"/></g></g></svg>