<?xml version="1.0" encoding="utf-8"?>
<!-- Generator: Adobe Illustrator 26.0.0, SVG Export Plug-In . SVG Version: 6.00 Build 0)  -->
<svg version="1.1" id="图层_1" xmlns="http://www.w3.org/2000/svg" xmlns:xlink="http://www.w3.org/1999/xlink" x="0px" y="0px"
	 viewBox="0 0 14.1 15.5" style="enable-background:new 0 0 14.1 15.5;" xml:space="preserve">
<style type="text/css">
	.st0{fill:#FFFFFF;}
</style>
<path id="play" class="st0" d="M3,15.5L3,15.5c-1.7,0-3-1.3-3-3V3c0-1.7,1.3-3,3-3c0.5,0,1.1,0.1,1.5,0.4l8.1,4.8
	C14,6,14.5,7.9,13.7,9.3c-0.3,0.4-0.6,0.8-1.1,1.1l-8.1,4.8C4.1,15.4,3.5,15.5,3,15.5z M3,1.5L3,1.5C2.2,1.5,1.5,2.2,1.5,3v9.5
	C1.5,13.3,2.2,14,3,14c0.3,0,0.5-0.1,0.8-0.2l8-4.8c0.7-0.4,1-1.3,0.5-2.1c-0.1-0.2-0.3-0.4-0.5-0.5l-8-4.7C3.5,1.6,3.3,1.5,3,1.5z"
	/>
</svg>
