<?xml version="1.0" encoding="utf-8"?>
<!-- Generator: Adobe Illustrator 26.0.0, SVG Export Plug-In . SVG Version: 6.00 Build 0)  -->
<svg version="1.1" id="图层_1" xmlns="http://www.w3.org/2000/svg" xmlns:xlink="http://www.w3.org/1999/xlink" x="0px" y="0px"
	 viewBox="0 0 13.4 2" style="enable-background:new 0 0 13.4 2;" xml:space="preserve">
<style type="text/css">
	.st0{fill:#fff;}
	.st1{fill-rule:evenodd;clip-rule:evenodd;fill:#fff;}
</style>
<g id="图层_2_00000000214937302562806540000005305734864641982609_">
	<g id="图层_1-2">
		<path class="st0" d="M0.9,1.6L0.8,1.7c-0.1,0-0.2,0-0.3,0c0,0-0.1,0-0.1,0l1-1.5c0.1-0.1,0.1-0.1,0.2-0.2C1.7,0,1.8,0,1.9,0
			C2,0,2,0,2.1,0.1c0.1,0,0.1,0.1,0.1,0.2l0.1,0.3C2.2,0.6,2,0.6,1.9,0.6c-0.1,0-0.2,0.1-0.3,0.1l0-0.2L1.4,0.8
			C1.1,1,0.9,1.2,0.9,1.6z"/>
		<path class="st0" d="M2.5,1.8H1.8l0-0.1C1.9,1.6,2,1.5,2.1,1.4c0.1-0.1,0.2-0.2,0.3-0.3L2.5,1.8z"/>
		<path class="st0" d="M3.1,0.8h0.4l0.1-0.4c0-0.1,0.1-0.1,0.2-0.1c0.1,0,0.1,0,0.1,0.1c0,0,0,0,0,0L3.8,0.8h0.4
			c0.1,0,0.1,0,0.1,0.1c0,0,0,0,0,0l0,0C4.3,1,4.2,1,4.2,1.1H3.8L3.7,1.5c0,0.1-0.1,0.1-0.2,0.1c-0.1,0-0.1,0-0.1-0.1c0,0,0,0,0,0
			l0.1-0.4H3.1C3,1.1,3,1,3,1c0,0,0,0,0,0l0,0C3,0.8,3.1,0.8,3.1,0.8 M4.7,0.9c0.1-0.2,0-0.5-0.2-0.6C4.4,0.1,4.1,0,3.9,0
			C3.6,0,3.3,0.1,3,0.3C2.8,0.4,2.6,0.7,2.6,0.9c-0.1,0.2,0,0.5,0.2,0.6c0.2,0.2,0.4,0.3,0.7,0.3c0.3,0,0.6-0.1,0.8-0.3
			C4.5,1.4,4.6,1.2,4.7,0.9z"/>
		<polygon class="st0" points="6.9,1.8 6.1,1.8 5.6,1.2 5.5,1.8 4.7,1.8 5.1,0 5.9,0 5.7,0.7 6.5,0 7.2,0 6.2,0.9 		"/>
		<path class="st0" d="M8.3,1.3L8.2,0.6L7.7,1.3H8.3z M9.2,1.8H8.5l0-0.2H7.6L7.4,1.8H7l1-1.5c0.1-0.1,0.1-0.1,0.2-0.2
			C8.3,0.1,8.4,0,8.5,0c0.1,0,0.2,0,0.2,0.1c0.1,0,0.1,0.1,0.1,0.2L9.2,1.8z"/>
		<path class="st0" d="M11,1.8h-0.8c-0.3,0-0.5-0.1-0.7-0.3C9.3,1.4,9.3,1.1,9.3,0.9c0.1-0.3,0.2-0.5,0.5-0.6C10,0.1,10.3,0,10.6,0
			h0.8l-0.1,0.3h-0.8c-0.1,0-0.3,0.1-0.3,0.2c-0.1,0.1-0.1,0.2-0.1,0.4c0,0.1,0,0.2,0,0.4c0,0.1,0.1,0.2,0.2,0.2c0,0,0,0,0,0H11
			L11,1.8z"/>
		<path class="st0" d="M12.9,1.8h-1.2c-0.1,0-0.2,0-0.2-0.1c-0.1,0-0.1-0.1-0.1-0.2l0.3-1.3c0-0.1,0.1-0.2,0.2-0.2
			C12,0,12.1,0,12.1,0h1.2l-0.1,0.3h-0.8c-0.1,0-0.1,0-0.1,0.1l-0.1,0.4h0.9l-0.1,0.3h-0.9l-0.1,0.4c0,0,0,0.1,0.1,0.1H13L12.9,1.8z
			"/>
		<path class="st1" d="M1,1.7c0.3,0,0.8-0.4,1-0.5C1.7,1.4,1.1,1.8,0.5,1.8c-0.2,0-0.3,0-0.4-0.1C0,1.6,0.3,1.2,0.5,1.1
			C0.4,1.2,0.2,1.3,0.2,1.5c0,0,0.1,0,0.1,0C0.6,1.3,0.8,1,0.8,0.8C0.3,0.8-0.1,1.3,0,1.7c0.1,0.3,0.4,0.4,1.1,0.3
			c0.6-0.2,1.4-0.8,1.5-1.4C2,0.9,1.1,0.6,1,1.7"/>
	</g>
</g>
</svg>
